<svg id="visual" viewBox="0 0 900 600" width="900" height="600" xmlns="http://www.w3.org/2000/svg" xmlns:xlink="http://www.w3.org/1999/xlink" version="1.1"><rect x="0" y="0" width="900" height="600" fill="#000000"></rect><path d="M0 445L75 445L75 293L150 293L150 374L225 374L225 430L300 430L300 493L375 493L375 505L450 505L450 370L525 370L525 332L600 332L600 299L675 299L675 316L750 316L750 488L825 488L825 307L900 307L900 288L900 601L900 601L825 601L825 601L750 601L750 601L675 601L675 601L600 601L600 601L525 601L525 601L450 601L450 601L375 601L375 601L300 601L300 601L225 601L225 601L150 601L150 601L75 601L75 601L0 601Z" fill="#8f7100"></path><path d="M0 435L75 435L75 486L150 486L150 510L225 510L225 509L300 509L300 353L375 353L375 395L450 395L450 380L525 380L525 432L600 432L600 362L675 362L675 455L750 455L750 384L825 384L825 393L900 393L900 516L900 601L900 601L825 601L825 601L750 601L750 601L675 601L675 601L600 601L600 601L525 601L525 601L450 601L450 601L375 601L375 601L300 601L300 601L225 601L225 601L150 601L150 601L75 601L75 601L0 601Z" fill="#9e7e00"></path><path d="M0 368L75 368L75 488L150 488L150 505L225 505L225 523L300 523L300 389L375 389L375 483L450 483L450 535L525 535L525 515L600 515L600 532L675 532L675 531L750 531L750 491L825 491L825 371L900 371L900 370L900 601L900 601L825 601L825 601L750 601L750 601L675 601L675 601L600 601L600 601L525 601L525 601L450 601L450 601L375 601L375 601L300 601L300 601L225 601L225 601L150 601L150 601L75 601L75 601L0 601Z" fill="#ae8b00"></path><path d="M0 540L75 540L75 486L150 486L150 392L225 392L225 478L300 478L300 517L375 517L375 436L450 436L450 428L525 428L525 534L600 534L600 519L675 519L675 430L750 430L750 443L825 443L825 417L900 417L900 431L900 601L900 601L825 601L825 601L750 601L750 601L675 601L675 601L600 601L600 601L525 601L525 601L450 601L450 601L375 601L375 601L300 601L300 601L225 601L225 601L150 601L150 601L75 601L75 601L0 601Z" fill="#bd9801"></path><path d="M0 534L75 534L75 496L150 496L150 502L225 502L225 433L300 433L300 552L375 552L375 476L450 476L450 467L525 467L525 512L600 512L600 527L675 527L675 445L750 445L750 505L825 505L825 461L900 461L900 468L900 601L900 601L825 601L825 601L750 601L750 601L675 601L675 601L600 601L600 601L525 601L525 601L450 601L450 601L375 601L375 601L300 601L300 601L225 601L225 601L150 601L150 601L75 601L75 601L0 601Z" fill="#cda601"></path><path d="M0 540L75 540L75 512L150 512L150 460L225 460L225 533L300 533L300 497L375 497L375 454L450 454L450 505L525 505L525 485L600 485L600 523L675 523L675 518L750 518L750 503L825 503L825 466L900 466L900 552L900 601L900 601L825 601L825 601L750 601L750 601L675 601L675 601L600 601L600 601L525 601L525 601L450 601L450 601L375 601L375 601L300 601L300 601L225 601L225 601L150 601L150 601L75 601L75 601L0 601Z" fill="#ddb402"></path><path d="M0 550L75 550L75 562L150 562L150 525L225 525L225 564L300 564L300 540L375 540L375 520L450 520L450 506L525 506L525 580L600 580L600 553L675 553L675 511L750 511L750 577L825 577L825 553L900 553L900 567L900 601L900 601L825 601L825 601L750 601L750 601L675 601L675 601L600 601L600 601L525 601L525 601L450 601L450 601L375 601L375 601L300 601L300 601L225 601L225 601L150 601L150 601L75 601L75 601L0 601Z" fill="#edc202"></path><path d="M0 529L75 529L75 545L150 545L150 556L225 556L225 585L300 585L300 557L375 557L375 563L450 563L450 560L525 560L525 591L600 591L600 588L675 588L675 574L750 574L750 573L825 573L825 578L900 578L900 560L900 601L900 601L825 601L825 601L750 601L750 601L675 601L675 601L600 601L600 601L525 601L525 601L450 601L450 601L375 601L375 601L300 601L300 601L225 601L225 601L150 601L150 601L75 601L75 601L0 601Z" fill="#fdd003"></path></svg>